<?xml version="1.0" encoding="UTF-8" ?>
<!DOCTYPE svg PUBLIC "-//W3C//DTD SVG 1.1//EN" "http://www.w3.org/Graphics/SVG/1.1/DTD/svg11.dtd">
<svg width="945pt" height="329pt" viewBox="0 0 945 329" version="1.1" xmlns="http://www.w3.org/2000/svg">
<g id="#c00000ff">
<path fill="#c00000" opacity="1.00" d=" M 0.00 0.00 L 32.00 0.00 C 31.98 19.57 32.03 39.14 31.98 58.71 C 39.00 48.09 51.51 42.28 63.95 41.32 C 76.84 39.89 90.33 44.31 99.60 53.44 C 110.43 63.61 115.59 78.45 116.89 92.97 C 118.31 110.03 116.39 128.22 106.95 142.93 C 99.42 154.85 86.26 163.25 72.06 164.03 C 62.06 164.45 51.59 163.25 42.73 158.30 C 37.53 155.45 33.45 150.95 30.45 145.90 C 30.54 150.93 30.49 155.96 30.50 161.00 C 20.33 161.01 10.17 161.00 0.00 161.00 L 0.00 0.00 M 50.38 66.60 C 43.61 68.64 38.42 74.10 35.46 80.38 C 31.44 88.97 30.48 98.70 31.17 108.07 C 31.94 117.04 34.61 126.37 41.05 132.95 C 47.65 139.76 58.48 141.52 67.19 138.11 C 73.14 135.80 77.77 130.83 80.46 125.13 C 84.88 116.08 85.71 105.69 84.75 95.78 C 83.77 87.01 80.94 77.88 74.34 71.68 C 68.10 65.69 58.51 64.05 50.38 66.60 Z" />
<path fill="#c00000" opacity="1.00" d=" M 485.50 0.00 L 517.75 0.00 C 517.73 19.54 517.78 39.07 517.72 58.61 C 526.79 44.95 544.47 39.65 560.15 41.43 C 575.48 43.14 588.90 53.70 595.58 67.40 C 603.28 82.99 604.32 101.13 601.77 118.10 C 599.37 133.72 591.53 149.32 577.66 157.69 C 565.63 165.31 550.38 165.51 536.99 161.86 C 528.34 159.53 520.52 153.95 516.20 146.01 C 516.29 151.00 516.24 156.00 516.25 161.00 C 505.99 161.00 495.74 161.02 485.49 160.98 C 485.51 107.32 485.49 53.66 485.50 0.00 M 536.36 66.50 C 529.05 68.62 523.49 74.70 520.60 81.57 C 516.38 91.44 515.80 102.58 517.46 113.08 C 518.82 120.62 521.65 128.30 527.43 133.59 C 534.65 140.49 546.31 141.61 555.07 137.10 C 561.62 133.67 565.93 127.11 568.15 120.22 C 571.38 110.12 571.57 99.13 569.22 88.83 C 567.57 81.87 564.30 74.96 558.60 70.44 C 552.44 65.51 543.83 64.31 536.36 66.50 Z" />
<path fill="#c00000" opacity="1.00" d=" M 185.55 41.80 C 202.56 39.55 221.06 42.43 234.87 53.18 C 246.81 62.30 253.89 76.69 255.80 91.41 C 258.07 108.52 255.55 127.03 245.28 141.30 C 237.05 152.96 223.82 160.49 209.87 162.94 C 192.76 165.91 173.98 163.66 159.52 153.48 C 146.91 144.70 139.10 130.20 136.90 115.16 C 134.56 99.14 136.39 81.93 144.76 67.81 C 153.19 53.20 169.00 43.87 185.55 41.80 M 187.43 66.69 C 180.65 68.61 175.26 74.01 172.42 80.36 C 168.29 89.30 167.80 99.42 168.44 109.12 C 169.29 117.70 171.63 126.84 178.08 133.00 C 184.46 139.50 194.50 140.87 203.10 139.04 C 210.81 137.47 217.23 131.69 220.31 124.55 C 224.69 114.64 224.91 103.43 223.68 92.83 C 222.54 84.92 219.70 76.79 213.52 71.40 C 206.49 65.26 196.17 64.21 187.43 66.69 Z" />
<path fill="#c00000" opacity="1.00" d=" M 337.87 41.87 C 347.45 40.23 357.75 41.04 366.50 45.48 C 372.68 48.58 377.59 53.93 380.38 60.23 C 387.69 49.41 399.90 41.74 413.09 41.16 C 423.79 40.79 435.19 42.44 444.05 48.90 C 450.93 53.87 455.16 61.77 456.86 69.96 C 458.44 76.53 457.92 83.32 458.00 90.01 C 458.00 113.67 458.00 137.34 458.00 161.00 C 447.33 161.00 436.67 161.00 426.00 161.00 C 426.00 139.99 425.99 118.98 426.01 97.97 C 425.92 91.44 426.10 84.77 424.34 78.42 C 423.18 74.24 420.53 70.30 416.47 68.50 C 407.00 64.37 393.37 66.44 388.76 76.68 C 386.05 82.02 385.42 88.11 385.26 94.01 C 385.24 116.34 385.25 138.67 385.25 161.00 C 374.50 161.00 363.75 161.00 353.00 161.00 C 352.99 136.64 353.01 112.29 353.00 87.93 C 352.78 81.47 351.88 73.82 346.15 69.79 C 337.47 64.16 324.63 65.99 318.11 74.14 C 313.58 79.66 312.35 87.00 312.27 93.95 C 312.22 116.30 312.27 138.65 312.24 161.00 C 301.58 161.00 290.91 161.01 280.24 160.99 C 280.26 122.08 280.24 83.17 280.25 44.25 C 290.33 44.24 300.41 44.26 310.49 44.25 C 310.51 49.57 310.47 54.90 310.53 60.23 C 316.91 50.96 326.69 43.86 337.87 41.87 Z" />
<path fill="#c00000" opacity="1.00" d=" M 639.60 52.60 C 653.63 41.93 672.54 38.91 689.57 42.57 C 702.55 45.32 714.23 53.43 721.40 64.59 C 730.32 77.98 733.23 94.55 732.42 110.42 C 704.42 110.62 676.42 110.43 648.42 110.51 C 648.83 118.38 650.61 126.87 656.43 132.60 C 662.18 138.63 671.11 140.11 679.09 139.69 C 688.49 138.98 698.41 133.87 702.07 124.76 C 711.51 124.74 720.94 124.73 730.38 124.77 C 726.37 137.44 718.76 149.51 707.13 156.42 C 694.56 163.96 679.19 165.24 664.91 163.38 C 649.24 161.30 634.30 152.56 625.92 138.99 C 617.32 125.43 614.90 108.67 616.87 92.92 C 618.88 77.26 626.77 62.07 639.60 52.60 M 662.09 68.19 C 653.85 72.12 649.00 81.09 648.40 89.98 C 665.63 90.03 682.86 89.99 700.09 90.00 C 698.55 81.50 695.23 71.97 686.91 67.94 C 679.17 64.44 669.77 64.63 662.09 68.19 Z" />
<path fill="#c00000" opacity="1.00" d=" M 779.73 66.22 C 786.60 49.35 806.18 37.84 824.21 42.08 C 824.30 52.11 824.23 62.14 824.25 72.17 C 813.78 70.28 801.81 70.22 793.06 77.15 C 784.15 84.33 781.52 96.41 781.35 107.32 C 781.13 125.21 781.31 143.11 781.25 161.00 C 770.58 161.00 759.92 161.01 749.25 160.99 C 749.25 122.08 749.25 83.16 749.25 44.25 C 759.42 44.25 769.58 44.25 779.75 44.25 C 779.74 51.57 779.76 58.90 779.73 66.22 Z" />
<path fill="#c00000" opacity="1.00" d=" M 847.22 52.19 C 857.63 43.45 871.83 41.46 884.98 41.09 C 898.69 40.98 913.41 42.75 924.68 51.25 C 933.23 57.58 937.67 68.10 938.42 78.50 C 928.23 78.49 918.05 78.51 907.86 78.49 C 907.42 73.10 904.74 67.61 899.60 65.31 C 892.49 62.15 884.19 62.08 876.72 63.89 C 872.09 64.83 867.91 68.91 868.47 73.91 C 868.62 79.87 874.60 82.95 879.52 84.63 C 894.63 89.56 911.07 90.34 925.40 97.63 C 932.69 101.27 938.92 107.71 940.70 115.84 C 943.30 128.35 940.00 142.61 930.27 151.31 C 920.70 159.88 907.60 163.08 895.08 163.91 C 879.12 164.80 861.85 163.02 848.55 153.36 C 838.88 146.47 833.84 134.67 833.43 123.01 C 843.67 122.98 853.91 123.00 864.15 123.00 C 864.17 128.43 866.45 133.92 870.82 137.25 C 876.48 141.56 883.90 142.80 890.86 142.43 C 896.61 141.93 902.87 140.33 906.69 135.66 C 909.83 131.67 910.56 125.16 906.66 121.42 C 902.88 117.68 897.58 116.14 892.65 114.54 C 878.74 110.28 863.71 109.30 850.74 102.30 C 844.13 98.73 838.41 92.77 836.91 85.21 C 834.64 73.49 837.74 60.04 847.22 52.19 Z" />
<path fill="#c00000" opacity="1.00" d=" M 1.01 193.75 C 30.67 193.75 60.34 193.76 90.01 193.74 C 105.42 194.24 120.84 193.90 136.25 194.01 C 136.26 239.00 136.25 284.00 136.25 329.00 L 1.00 329.00 C 1.00 283.92 0.99 238.83 1.01 193.75 Z" />
<path fill="#c00000" opacity="1.00" d=" M 270.75 193.75 C 315.76 193.75 360.76 193.66 405.75 194.01 C 405.75 239.00 405.75 284.00 405.75 329.00 L 270.75 329.00 C 270.75 283.92 270.74 238.84 270.75 193.75 Z" />
<path fill="#c00000" opacity="1.00" d=" M 540.50 329.00 C 540.50 283.92 540.49 238.83 540.51 193.75 C 585.51 193.75 630.51 193.65 675.50 194.01 C 675.49 239.01 675.50 284.00 675.50 329.00 L 540.50 329.00 Z" />
<path fill="#c00000" opacity="1.00" d=" M 810.01 193.75 C 845.02 193.74 880.03 193.75 915.04 193.75 C 925.02 194.17 935.01 193.95 945.00 194.00 L 945.00 329.00 L 810.00 329.00 C 810.01 283.92 809.99 238.84 810.01 193.75 Z" />
</g>
<g id="#ffffffff">
</g>
</svg>
<?xml version="1.0" encoding="UTF-8" ?>
<!DOCTYPE svg PUBLIC "-//W3C//DTD SVG 1.1//EN" "http://www.w3.org/Graphics/SVG/1.1/DTD/svg11.dtd">
<svg width="945pt" height="329pt" viewBox="0 0 945 329" version="1.1" xmlns="http://www.w3.org/2000/svg">
<g id="#c00000ff">
<path fill="#c00000" opacity="1.00" d=" M 0.00 0.00 L 32.00 0.00 C 31.98 19.57 32.03 39.14 31.98 58.71 C 39.00 48.09 51.51 42.28 63.95 41.32 C 76.84 39.89 90.33 44.31 99.60 53.44 C 110.43 63.61 115.59 78.45 116.89 92.97 C 118.31 110.03 116.39 128.22 106.95 142.93 C 99.42 154.85 86.26 163.25 72.06 164.03 C 62.06 164.45 51.59 163.25 42.73 158.30 C 37.53 155.45 33.45 150.95 30.45 145.90 C 30.54 150.93 30.49 155.96 30.50 161.00 C 20.33 161.01 10.17 161.00 0.00 161.00 L 0.00 0.00 M 50.38 66.60 C 43.61 68.64 38.42 74.10 35.46 80.38 C 31.44 88.97 30.48 98.70 31.17 108.07 C 31.94 117.04 34.61 126.37 41.05 132.95 C 47.65 139.76 58.48 141.52 67.19 138.11 C 73.14 135.80 77.77 130.83 80.46 125.13 C 84.88 116.08 85.71 105.69 84.75 95.78 C 83.77 87.01 80.94 77.88 74.34 71.68 C 68.10 65.69 58.51 64.05 50.38 66.60 Z" />
<path fill="#c00000" opacity="1.00" d=" M 485.50 0.00 L 517.75 0.00 C 517.73 19.54 517.78 39.07 517.72 58.61 C 526.79 44.95 544.47 39.65 560.15 41.43 C 575.48 43.14 588.90 53.70 595.58 67.40 C 603.28 82.99 604.32 101.13 601.77 118.10 C 599.37 133.72 591.53 149.32 577.66 157.69 C 565.63 165.31 550.38 165.51 536.99 161.86 C 528.34 159.53 520.52 153.95 516.20 146.01 C 516.29 151.00 516.24 156.00 516.25 161.00 C 505.99 161.00 495.74 161.02 485.49 160.98 C 485.51 107.32 485.49 53.66 485.50 0.00 M 536.36 66.50 C 529.05 68.62 523.49 74.70 520.60 81.57 C 516.38 91.44 515.80 102.58 517.46 113.08 C 518.82 120.62 521.65 128.30 527.43 133.59 C 534.65 140.49 546.31 141.61 555.07 137.10 C 561.62 133.67 565.93 127.11 568.15 120.22 C 571.38 110.12 571.57 99.13 569.22 88.83 C 567.57 81.87 564.30 74.96 558.60 70.44 C 552.44 65.51 543.83 64.31 536.36 66.50 Z" />
<path fill="#c00000" opacity="1.00" d=" M 185.55 41.80 C 202.56 39.55 221.06 42.43 234.87 53.18 C 246.81 62.30 253.89 76.69 255.80 91.41 C 258.07 108.52 255.55 127.03 245.28 141.30 C 237.05 152.96 223.82 160.49 209.87 162.94 C 192.76 165.91 173.98 163.66 159.52 153.48 C 146.91 144.70 139.10 130.20 136.90 115.16 C 134.56 99.14 136.39 81.93 144.76 67.81 C 153.19 53.20 169.00 43.87 185.55 41.80 M 187.43 66.69 C 180.65 68.61 175.26 74.01 172.42 80.36 C 168.29 89.30 167.80 99.42 168.44 109.12 C 169.29 117.70 171.63 126.84 178.08 133.00 C 184.46 139.50 194.50 140.87 203.10 139.04 C 210.81 137.47 217.23 131.69 220.31 124.55 C 224.69 114.64 224.91 103.43 223.68 92.83 C 222.54 84.92 219.70 76.79 213.52 71.40 C 206.49 65.26 196.17 64.21 187.43 66.69 Z" />
<path fill="#c00000" opacity="1.00" d=" M 337.87 41.87 C 347.45 40.23 357.75 41.04 366.50 45.48 C 372.68 48.58 377.59 53.93 380.38 60.23 C 387.69 49.41 399.90 41.74 413.09 41.16 C 423.79 40.79 435.19 42.44 444.05 48.90 C 450.93 53.87 455.16 61.77 456.86 69.96 C 458.44 76.53 457.92 83.32 458.00 90.01 C 458.00 113.67 458.00 137.34 458.00 161.00 C 447.33 161.00 436.67 161.00 426.00 161.00 C 426.00 139.99 425.99 118.98 426.01 97.97 C 425.92 91.44 426.10 84.77 424.34 78.42 C 423.18 74.24 420.53 70.30 416.47 68.50 C 407.00 64.37 393.37 66.44 388.76 76.68 C 386.05 82.02 385.42 88.11 385.26 94.01 C 385.24 116.34 385.25 138.67 385.25 161.00 C 374.50 161.00 363.75 161.00 353.00 161.00 C 352.99 136.64 353.01 112.29 353.00 87.93 C 352.78 81.47 351.88 73.82 346.15 69.79 C 337.47 64.16 324.63 65.99 318.11 74.14 C 313.58 79.66 312.35 87.00 312.27 93.95 C 312.22 116.30 312.27 138.65 312.24 161.00 C 301.58 161.00 290.91 161.01 280.24 160.99 C 280.26 122.08 280.24 83.17 280.25 44.25 C 290.33 44.24 300.41 44.26 310.49 44.25 C 310.51 49.57 310.47 54.90 310.53 60.23 C 316.91 50.96 326.69 43.86 337.87 41.87 Z" />
<path fill="#c00000" opacity="1.00" d=" M 639.60 52.60 C 653.63 41.93 672.54 38.91 689.57 42.57 C 702.55 45.32 714.23 53.43 721.40 64.59 C 730.32 77.98 733.23 94.55 732.42 110.42 C 704.42 110.62 676.42 110.43 648.42 110.51 C 648.83 118.38 650.61 126.87 656.43 132.60 C 662.18 138.63 671.11 140.11 679.09 139.69 C 688.49 138.98 698.41 133.87 702.07 124.76 C 711.51 124.74 720.94 124.73 730.38 124.77 C 726.37 137.44 718.76 149.51 707.13 156.42 C 694.56 163.96 679.19 165.24 664.91 163.38 C 649.24 161.30 634.30 152.56 625.92 138.99 C 617.32 125.43 614.90 108.67 616.87 92.92 C 618.88 77.26 626.77 62.07 639.60 52.60 M 662.09 68.19 C 653.85 72.12 649.00 81.09 648.40 89.98 C 665.63 90.03 682.86 89.99 700.09 90.00 C 698.55 81.50 695.23 71.97 686.91 67.94 C 679.17 64.44 669.77 64.63 662.09 68.19 Z" />
<path fill="#c00000" opacity="1.00" d=" M 779.73 66.22 C 786.60 49.35 806.18 37.84 824.21 42.08 C 824.30 52.11 824.23 62.14 824.25 72.17 C 813.78 70.28 801.81 70.22 793.06 77.15 C 784.15 84.33 781.52 96.41 781.35 107.32 C 781.13 125.21 781.31 143.11 781.25 161.00 C 770.58 161.00 759.92 161.01 749.25 160.99 C 749.25 122.08 749.25 83.16 749.25 44.25 C 759.42 44.25 769.58 44.25 779.75 44.25 C 779.74 51.57 779.76 58.90 779.73 66.22 Z" />
<path fill="#c00000" opacity="1.00" d=" M 847.22 52.19 C 857.63 43.45 871.83 41.46 884.98 41.09 C 898.69 40.98 913.41 42.75 924.68 51.25 C 933.23 57.58 937.67 68.10 938.42 78.50 C 928.23 78.49 918.05 78.51 907.86 78.49 C 907.42 73.10 904.74 67.61 899.60 65.31 C 892.49 62.15 884.19 62.08 876.72 63.89 C 872.09 64.83 867.91 68.91 868.47 73.91 C 868.62 79.87 874.60 82.95 879.52 84.63 C 894.63 89.56 911.07 90.34 925.40 97.63 C 932.69 101.27 938.92 107.71 940.70 115.84 C 943.30 128.35 940.00 142.61 930.27 151.31 C 920.70 159.88 907.60 163.08 895.08 163.91 C 879.12 164.80 861.85 163.02 848.55 153.36 C 838.88 146.47 833.84 134.67 833.43 123.01 C 843.67 122.98 853.91 123.00 864.15 123.00 C 864.17 128.43 866.45 133.92 870.82 137.25 C 876.48 141.56 883.90 142.80 890.86 142.43 C 896.61 141.93 902.87 140.33 906.69 135.66 C 909.83 131.67 910.56 125.16 906.66 121.42 C 902.88 117.68 897.58 116.14 892.65 114.54 C 878.74 110.28 863.71 109.30 850.74 102.30 C 844.13 98.73 838.41 92.77 836.91 85.21 C 834.64 73.49 837.74 60.04 847.22 52.19 Z" />
<path fill="#c00000" opacity="1.00" d=" M 1.01 193.75 C 30.67 193.75 60.34 193.76 90.01 193.74 C 105.42 194.24 120.84 193.90 136.25 194.01 C 136.26 239.00 136.25 284.00 136.25 329.00 L 1.00 329.00 C 1.00 283.92 0.99 238.83 1.01 193.75 Z" />
<path fill="#c00000" opacity="1.00" d=" M 270.75 193.75 C 315.76 193.75 360.76 193.66 405.75 194.01 C 405.75 239.00 405.75 284.00 405.75 329.00 L 270.75 329.00 C 270.75 283.92 270.74 238.84 270.75 193.75 Z" />
<path fill="#c00000" opacity="1.00" d=" M 540.50 329.00 C 540.50 283.92 540.49 238.83 540.51 193.75 C 585.51 193.75 630.51 193.65 675.50 194.01 C 675.49 239.01 675.50 284.00 675.50 329.00 L 540.50 329.00 Z" />
<path fill="#c00000" opacity="1.00" d=" M 810.01 193.75 C 845.02 193.74 880.03 193.75 915.04 193.75 C 925.02 194.17 935.01 193.95 945.00 194.00 L 945.00 329.00 L 810.00 329.00 C 810.01 283.92 809.99 238.84 810.01 193.75 Z" />
</g>
<g id="#ffffffff">
</g>
</svg>
